<?xml version="1.0" encoding="UTF-8"?>
<svg xmlns="http://www.w3.org/2000/svg" version="1.1" viewBox="0 0 1024 1024">
  <!-- Generator: Adobe Illustrator 30.2.1, SVG Export Plug-In . SVG Version: 2.1.1 Build 1)  -->
  <g id="Layer_1" shape-rendering="geometricPrecision">
    <path d="M327.42,0h40.93v40.93h-40.93V0ZM409.27,0h40.93v40.93h-40.93V0ZM491.13,0h40.93v40.93h-40.93V0ZM572.98,0h40.93v40.93h-40.93V0ZM450.2,40.93h40.93v40.93h-40.93v-40.93ZM572.98,40.93h40.93v40.93h-40.93v-40.93ZM654.84,40.93h40.93v40.93h-40.93v-40.93ZM327.42,81.85h40.93v40.93h-40.93v-40.93ZM409.27,81.85h40.93v40.93h-40.93v-40.93ZM491.13,81.85h40.93v40.93h-40.93v-40.93ZM532.05,81.85h40.93v40.93h-40.93v-40.93ZM368.35,122.78h40.93v40.93h-40.93v-40.93ZM450.2,122.78h40.93v40.93h-40.93v-40.93ZM532.05,122.78h40.93v40.93h-40.93v-40.93ZM572.98,122.78h40.93v40.93h-40.93v-40.93ZM613.91,122.78h40.93v40.93h-40.93v-40.93ZM368.35,163.71h40.93v40.93h-40.93v-40.93ZM409.27,163.71h40.93v40.93h-40.93v-40.93ZM491.13,163.71h40.93v40.93h-40.93v-40.93ZM654.84,163.71h40.93v40.93h-40.93v-40.93ZM327.42,204.64h40.93v40.93h-40.93v-40.93ZM654.84,204.64h40.93v40.93h-40.93v-40.93ZM327.42,245.56h40.93v40.93h-40.93v-40.93ZM409.27,245.56h40.93v40.93h-40.93v-40.93ZM491.13,245.56h40.93v40.93h-40.93v-40.93ZM572.98,245.56h40.93v40.93h-40.93v-40.93ZM654.84,245.56h40.93v40.93h-40.93v-40.93ZM409.27,286.49h40.93v40.93h-40.93v-40.93ZM450.2,286.49h40.93v40.93h-40.93v-40.93ZM572.98,286.49h40.93v40.93h-40.93v-40.93ZM613.91,286.49h40.93v40.93h-40.93v-40.93ZM654.84,286.49h40.93v40.93h-40.93v-40.93ZM0,327.42h40.93v40.93H0v-40.93ZM81.85,327.42h40.93v40.93h-40.93v-40.93ZM245.56,327.42h40.93v40.93h-40.93v-40.93ZM286.49,327.42h40.93v40.93h-40.93v-40.93ZM368.35,327.42h40.93v40.93h-40.93v-40.93ZM409.27,327.42h40.93v40.93h-40.93v-40.93ZM491.13,327.42h40.93v40.93h-40.93v-40.93ZM613.91,327.42h40.93v40.93h-40.93v-40.93ZM654.84,327.42h40.93v40.93h-40.93v-40.93ZM777.62,327.42h40.93v40.93h-40.93v-40.93ZM900.4,327.42h40.93v40.93h-40.93v-40.93ZM982.25,327.42h40.93v40.93h-40.93v-40.93ZM40.93,368.35h40.93v40.93h-40.93v-40.93ZM163.71,368.35h40.93v40.93h-40.93v-40.93ZM286.49,368.35h40.93v40.93h-40.93v-40.93ZM327.42,368.35h40.93v40.93h-40.93v-40.93ZM368.35,368.35h40.93v40.93h-40.93v-40.93ZM409.27,368.35h40.93v40.93h-40.93v-40.93ZM613.91,368.35h40.93v40.93h-40.93v-40.93ZM654.84,368.35h40.93v40.93h-40.93v-40.93ZM695.76,368.35h40.93v40.93h-40.93v-40.93ZM736.69,368.35h40.93v40.93h-40.93v-40.93ZM777.62,368.35h40.93v40.93h-40.93v-40.93ZM859.47,368.35h40.93v40.93h-40.93v-40.93ZM941.33,368.35h40.93v40.93h-40.93v-40.93ZM982.25,368.35h40.93v40.93h-40.93v-40.93ZM0,409.27h40.93v40.93H0v-40.93ZM40.93,409.27h40.93v40.93h-40.93v-40.93ZM122.78,409.27h40.93v40.93h-40.93v-40.93ZM204.64,409.27h40.93v40.93h-40.93v-40.93ZM245.56,409.27h40.93v40.93h-40.93v-40.93ZM286.49,409.27h40.93v40.93h-40.93v-40.93ZM327.42,409.27h40.93v40.93h-40.93v-40.93ZM368.35,409.27h40.93v40.93h-40.93v-40.93ZM409.27,409.27h40.93v40.93h-40.93v-40.93ZM450.2,409.27h40.93v40.93h-40.93v-40.93ZM491.13,409.27h40.93v40.93h-40.93v-40.93ZM613.91,409.27h40.93v40.93h-40.93v-40.93ZM654.84,409.27h40.93v40.93h-40.93v-40.93ZM695.76,409.27h40.93v40.93h-40.93v-40.93ZM736.69,409.27h40.93v40.93h-40.93v-40.93ZM818.55,409.27h40.93v40.93h-40.93v-40.93ZM859.47,409.27h40.93v40.93h-40.93v-40.93ZM900.4,409.27h40.93v40.93h-40.93v-40.93ZM982.25,409.27h40.93v40.93h-40.93v-40.93ZM0,450.2h40.93v40.93H0v-40.93ZM40.93,450.2h40.93v40.93h-40.93v-40.93ZM491.13,450.2h40.93v40.93h-40.93v-40.93ZM572.98,450.2h40.93v40.93h-40.93v-40.93ZM613.91,450.2h40.93v40.93h-40.93v-40.93ZM736.69,450.2h40.93v40.93h-40.93v-40.93ZM859.47,450.2h40.93v40.93h-40.93v-40.93ZM40.93,491.13h40.93v40.93h-40.93v-40.93ZM81.85,491.13h40.93v40.93h-40.93v-40.93ZM204.64,491.13h40.93v40.93h-40.93v-40.93ZM245.56,491.13h40.93v40.93h-40.93v-40.93ZM368.35,491.13h40.93v40.93h-40.93v-40.93ZM409.27,491.13h40.93v40.93h-40.93v-40.93ZM491.13,491.13h40.93v40.93h-40.93v-40.93ZM532.05,491.13h40.93v40.93h-40.93v-40.93ZM613.91,491.13h40.93v40.93h-40.93v-40.93ZM736.69,491.13h40.93v40.93h-40.93v-40.93ZM982.25,491.13h40.93v40.93h-40.93v-40.93ZM40.93,532.05h40.93v40.93h-40.93v-40.93ZM163.71,532.05h40.93v40.93h-40.93v-40.93ZM204.64,532.05h40.93v40.93h-40.93v-40.93ZM327.42,532.05h40.93v40.93h-40.93v-40.93ZM491.13,532.05h40.93v40.93h-40.93v-40.93ZM613.91,532.05h40.93v40.93h-40.93v-40.93ZM654.84,532.05h40.93v40.93h-40.93v-40.93ZM695.76,532.05h40.93v40.93h-40.93v-40.93ZM736.69,532.05h40.93v40.93h-40.93v-40.93ZM777.62,532.05h40.93v40.93h-40.93v-40.93ZM941.33,532.05h40.93v40.93h-40.93v-40.93ZM982.25,532.05h40.93v40.93h-40.93v-40.93ZM0,572.98h40.93v40.93H0v-40.93ZM40.93,572.98h40.93v40.93h-40.93v-40.93ZM245.56,572.98h40.93v40.93h-40.93v-40.93ZM368.35,572.98h40.93v40.93h-40.93v-40.93ZM409.27,572.98h40.93v40.93h-40.93v-40.93ZM491.13,572.98h40.93v40.93h-40.93v-40.93ZM613.91,572.98h40.93v40.93h-40.93v-40.93ZM736.69,572.98h40.93v40.93h-40.93v-40.93ZM859.47,572.98h40.93v40.93h-40.93v-40.93ZM900.4,572.98h40.93v40.93h-40.93v-40.93ZM982.25,572.98h40.93v40.93h-40.93v-40.93ZM81.85,613.91h40.93v40.93h-40.93v-40.93ZM122.78,613.91h40.93v40.93h-40.93v-40.93ZM163.71,613.91h40.93v40.93h-40.93v-40.93ZM327.42,613.91h40.93v40.93h-40.93v-40.93ZM368.35,613.91h40.93v40.93h-40.93v-40.93ZM450.2,613.91h40.93v40.93h-40.93v-40.93ZM491.13,613.91h40.93v40.93h-40.93v-40.93ZM613.91,613.91h40.93v40.93h-40.93v-40.93ZM654.84,613.91h40.93v40.93h-40.93v-40.93ZM777.62,613.91h40.93v40.93h-40.93v-40.93ZM818.55,613.91h40.93v40.93h-40.93v-40.93ZM859.47,613.91h40.93v40.93h-40.93v-40.93ZM0,654.84h40.93v40.93H0v-40.93ZM40.93,654.84h40.93v40.93h-40.93v-40.93ZM81.85,654.84h40.93v40.93h-40.93v-40.93ZM122.78,654.84h40.93v40.93h-40.93v-40.93ZM163.71,654.84h40.93v40.93h-40.93v-40.93ZM204.64,654.84h40.93v40.93h-40.93v-40.93ZM245.56,654.84h40.93v40.93h-40.93v-40.93ZM286.49,654.84h40.93v40.93h-40.93v-40.93ZM368.35,654.84h40.93v40.93h-40.93v-40.93ZM409.27,654.84h40.93v40.93h-40.93v-40.93ZM572.98,654.84h40.93v40.93h-40.93v-40.93ZM654.84,654.84h40.93v40.93h-40.93v-40.93ZM695.76,654.84h40.93v40.93h-40.93v-40.93ZM736.69,654.84h40.93v40.93h-40.93v-40.93ZM777.62,654.84h40.93v40.93h-40.93v-40.93ZM818.55,654.84h40.93v40.93h-40.93v-40.93ZM941.33,654.84h40.93v40.93h-40.93v-40.93ZM327.42,695.76h40.93v40.93h-40.93v-40.93ZM368.35,695.76h40.93v40.93h-40.93v-40.93ZM572.98,695.76h40.93v40.93h-40.93v-40.93ZM654.84,695.76h40.93v40.93h-40.93v-40.93ZM818.55,695.76h40.93v40.93h-40.93v-40.93ZM982.25,695.76h40.93v40.93h-40.93v-40.93ZM327.42,736.69h40.93v40.93h-40.93v-40.93ZM409.27,736.69h40.93v40.93h-40.93v-40.93ZM450.2,736.69h40.93v40.93h-40.93v-40.93ZM654.84,736.69h40.93v40.93h-40.93v-40.93ZM736.69,736.69h40.93v40.93h-40.93v-40.93ZM818.55,736.69h40.93v40.93h-40.93v-40.93ZM982.25,736.69h40.93v40.93h-40.93v-40.93ZM613.91,777.62h40.93v40.93h-40.93v-40.93ZM654.84,777.62h40.93v40.93h-40.93v-40.93ZM818.55,777.62h40.93v40.93h-40.93v-40.93ZM941.33,777.62h40.93v40.93h-40.93v-40.93ZM982.25,777.62h40.93v40.93h-40.93v-40.93ZM409.27,818.55h40.93v40.93h-40.93v-40.93ZM450.2,818.55h40.93v40.93h-40.93v-40.93ZM491.13,818.55h40.93v40.93h-40.93v-40.93ZM532.05,818.55h40.93v40.93h-40.93v-40.93ZM613.91,818.55h40.93v40.93h-40.93v-40.93ZM654.84,818.55h40.93v40.93h-40.93v-40.93ZM695.76,818.55h40.93v40.93h-40.93v-40.93ZM736.69,818.55h40.93v40.93h-40.93v-40.93ZM777.62,818.55h40.93v40.93h-40.93v-40.93ZM818.55,818.55h40.93v40.93h-40.93v-40.93ZM982.25,818.55h40.93v40.93h-40.93v-40.93ZM368.35,859.47h40.93v40.93h-40.93v-40.93ZM409.27,859.47h40.93v40.93h-40.93v-40.93ZM491.13,859.47h40.93v40.93h-40.93v-40.93ZM572.98,859.47h40.93v40.93h-40.93v-40.93ZM654.84,859.47h40.93v40.93h-40.93v-40.93ZM695.76,859.47h40.93v40.93h-40.93v-40.93ZM818.55,859.47h40.93v40.93h-40.93v-40.93ZM900.4,859.47h40.93v40.93h-40.93v-40.93ZM941.33,859.47h40.93v40.93h-40.93v-40.93ZM327.42,900.4h40.93v40.93h-40.93v-40.93ZM409.27,900.4h40.93v40.93h-40.93v-40.93ZM491.13,900.4h40.93v40.93h-40.93v-40.93ZM532.05,900.4h40.93v40.93h-40.93v-40.93ZM572.98,900.4h40.93v40.93h-40.93v-40.93ZM695.76,900.4h40.93v40.93h-40.93v-40.93ZM777.62,900.4h40.93v40.93h-40.93v-40.93ZM818.55,900.4h40.93v40.93h-40.93v-40.93ZM859.47,900.4h40.93v40.93h-40.93v-40.93ZM941.33,900.4h40.93v40.93h-40.93v-40.93ZM982.25,900.4h40.93v40.93h-40.93v-40.93ZM450.2,941.33h40.93v40.93h-40.93v-40.93ZM491.13,941.33h40.93v40.93h-40.93v-40.93ZM572.98,941.33h40.93v40.93h-40.93v-40.93ZM654.84,941.33h40.93v40.93h-40.93v-40.93ZM695.76,941.33h40.93v40.93h-40.93v-40.93ZM736.69,941.33h40.93v40.93h-40.93v-40.93ZM777.62,941.33h40.93v40.93h-40.93v-40.93ZM818.55,941.33h40.93v40.93h-40.93v-40.93ZM327.42,982.25h40.93v40.93h-40.93v-40.93ZM368.35,982.25h40.93v40.93h-40.93v-40.93ZM491.13,982.25h40.93v40.93h-40.93v-40.93ZM532.05,982.25h40.93v40.93h-40.93v-40.93ZM572.98,982.25h40.93v40.93h-40.93v-40.93ZM613.91,982.25h40.93v40.93h-40.93v-40.93ZM654.84,982.25h40.93v40.93h-40.93v-40.93ZM859.47,982.25h40.93v40.93h-40.93v-40.93ZM982.25,982.25h40.93v40.93h-40.93v-40.93Z"/>
    <path d="M0,0h287.31v287.31H0V0ZM47.88,47.88v191.54h191.54V47.88H47.88Z"/>
    <path d="M81.85,81.85h122.78v122.78h-122.78v-122.78Z"/>
    <path d="M0,736.69h287.31v287.31H0v-287.31ZM47.88,784.58v191.54h191.54v-191.54H47.88Z"/>
    <path d="M81.85,818.55h122.78v122.78h-122.78v-122.78Z"/>
    <path d="M736.69,0h287.31v287.31h-287.31V0ZM784.58,47.88v191.54h191.54V47.88h-191.54Z"/>
    <path d="M818.55,81.85h122.78v122.78h-122.78v-122.78Z"/>
  </g>
</svg>